<svg height="200" width="100" xmlns="http://www.w3.org/2000/svg">
<g>
<defs>
<clipPath id="my_curve_layer_clip_path">
<rect height="200" width="100" x="0" y="0"/>
</clipPath>
</defs>
<g height="200" width="100">
<g clip-path="url(#my_curve_layer_clip_path)" transform="translate(0,0)">
<path d="M 10 100 L 11.846009254455566 92.734375 L 13.63525390625 85.9375 L 15.369568824768066 79.60938262939453 L 17.05078125 73.75000762939453 L 18.68072509765625 68.359375 L 20.26123046875 63.4375 L 21.79412841796875 58.984375 L 23.28125 55 L 24.72442626953125 51.484375 L 26.12548828125 48.4375 L 27.48626708984375 45.859375 L 28.80859375 43.75 L 30.09429931640625 42.109375 L 31.34521484375 40.9375 L 32.56317138671875 40.234375 L 33.75 40.00001525878906 L 34.90753173828125 40.234375 L 36.03759765625 40.9375 L 37.14202880859375 42.109375 L 38.22265625 43.75 L 39.28131103515625 45.859375 L 40.31982421875 48.4375 L 41.34002685546875 51.484375 L 42.34375 55 L 43.33282470703125 58.984375 L 44.30908203125 63.4375 L 45.27435302734375 68.359375 L 46.23046875 73.75000762939453 L 47.17926025390625 79.60938262939453 L 48.12255859375 85.9375 L 49.06219482421875 92.734375 L 50 100 L 50.937808990478516 107.265625 L 51.877437591552734 114.0625 L 52.820743560791016 120.390625 L 53.769535064697266 126.25 L 54.72564697265625 131.640625 L 55.690921783447266 136.5625 L 56.667179107666016 141.015625 L 57.656253814697266 145 L 58.659976959228516 148.515625 L 59.68017578125 151.5625 L 60.718692779541016 154.140625 L 61.777347564697266 156.25 L 62.857975006103516 157.890625 L 63.962398529052734 159.0625 L 65.09246826171875 159.765625 L 66.25 160 L 67.43682861328125 159.765625 L 68.65478515625 159.0625 L 69.90570068359375 157.890625 L 71.19140625 156.25 L 72.51373291015625 154.140625 L 73.87451171875 151.5625 L 75.27557373046875 148.515625 L 76.71875 145 L 78.20587158203125 141.015625 L 79.73876953125 136.5625 L 81.31927490234375 131.640625 L 82.94921875 126.25 L 84.63043212890625 120.390625 L 86.36474609375 114.0625 L 88.15399169921875 107.265625 L 90 100" fill="none" opacity="1" stroke="rgba(255, 0, 0, 255)" stroke-width="2"/>
</g>
</g>
</g>
</svg>